<svg xmlns="http://www.w3.org/2000/svg" width="1100" height="800" viewBox="0 0 1100 800" role="img" aria-labelledby="title desc">
  <title id="title">Real agent validation sequence</title>
  <desc id="desc">Cursor agent discovers agentdoctor-brain MCP tools and receives evidence-backed results</desc>
  <defs>
    <marker id="v" markerWidth="7" markerHeight="7" refX="5" refY="3.5" orient="auto">
      <path d="M0,0 L7,3.5 L0,7 Z" fill="#06B6D4"/>
    </marker>
  </defs>
  <rect width="1100" height="800" fill="#07111F"/>
  <rect x="28" y="28" width="1044" height="744" rx="14" fill="none" stroke="#1E293B"/>
  <text x="52" y="72" font-family="ui-sans-serif, system-ui, sans-serif" font-size="24" font-weight="700" fill="#F8FAFC">Real Agent Validation</text>
  <text x="52" y="100" font-family="ui-sans-serif, system-ui, sans-serif" font-size="14" fill="#94A3B8">validation/mcp-agent - fixture understanding-dependencies-project</text>

  <g font-family="ui-sans-serif, system-ui, sans-serif" font-size="14" font-weight="600" fill="#F8FAFC">
    <rect x="380" y="130" width="340" height="44" rx="8" fill="#0F1B2D" stroke="#10B981"/><text x="550" y="157" text-anchor="middle">Cursor Agent</text>
    <line x1="550" y1="174" x2="550" y2="200" stroke="#06B6D4" stroke-width="2" marker-end="url(#v)"/>
    <rect x="380" y="208" width="340" height="44" rx="8" fill="#0F1B2D" stroke="#2563EB"/><text x="550" y="235" text-anchor="middle">MCP Discovery</text>
    <line x1="550" y1="252" x2="550" y2="278" stroke="#06B6D4" stroke-width="2" marker-end="url(#v)"/>
    <rect x="380" y="286" width="340" height="44" rx="8" fill="#0F1B2D" stroke="#06B6D4"/><text x="550" y="313" text-anchor="middle">agentdoctor-brain (10 tools)</text>
    <line x1="550" y1="330" x2="550" y2="356" stroke="#06B6D4" stroke-width="2" marker-end="url(#v)"/>
    <rect x="380" y="364" width="340" height="44" rx="8" fill="#0F1B2D" stroke="#7C3AED"/><text x="550" y="391" text-anchor="middle">MCP tool call</text>
    <line x1="550" y1="408" x2="550" y2="434" stroke="#06B6D4" stroke-width="2" marker-end="url(#v)"/>
    <rect x="380" y="442" width="340" height="44" rx="8" fill="#0F1B2D" stroke="#7C3AED"/><text x="550" y="469" text-anchor="middle">Project Brain</text>
    <line x1="550" y1="486" x2="550" y2="512" stroke="#06B6D4" stroke-width="2" marker-end="url(#v)"/>
    <rect x="380" y="520" width="340" height="44" rx="8" fill="#0F1B2D" stroke="#06B6D4"/><text x="550" y="547" text-anchor="middle">Evidence-backed result</text>
    <line x1="550" y1="564" x2="550" y2="590" stroke="#06B6D4" stroke-width="2" marker-end="url(#v)"/>
    <rect x="380" y="598" width="340" height="44" rx="8" fill="#0F1B2D" stroke="#10B981"/><text x="550" y="625" text-anchor="middle">Agent answer surface</text>
  </g>

  <g font-family="ui-sans-serif, system-ui, sans-serif" font-size="12">
    <text x="52" y="160" fill="#94A3B8">Checks exercised</text>
    <rect x="52" y="180" width="260" height="36" rx="6" fill="#122033" stroke="#334155"/><text x="182" y="203" text-anchor="middle" fill="#CBD5E1">actual MCP tool call</text>
    <rect x="52" y="226" width="260" height="36" rx="6" fill="#122033" stroke="#334155"/><text x="182" y="249" text-anchor="middle" fill="#CBD5E1">grounded Brain result</text>
    <rect x="52" y="272" width="260" height="36" rx="6" fill="#122033" stroke="#334155"/><text x="182" y="295" text-anchor="middle" fill="#CBD5E1">provenance envelope</text>
    <rect x="52" y="318" width="260" height="36" rx="6" fill="#122033" stroke="#F59E0B"/><text x="182" y="341" text-anchor="middle" fill="#F8FAFC">UNKNOWN ownership guard</text>
    <rect x="52" y="364" width="260" height="36" rx="6" fill="#122033" stroke="#334155"/><text x="182" y="387" text-anchor="middle" fill="#CBD5E1">snapshot / delta semantics</text>
    <rect x="52" y="410" width="260" height="36" rx="6" fill="#122033" stroke="#334155"/><text x="182" y="433" text-anchor="middle" fill="#CBD5E1">change-danger risk semantics</text>
  </g>

  <rect x="52" y="680" width="996" height="60" rx="10" fill="#0B1628" stroke="#334155"/>
  <text x="72" y="716" font-family="ui-sans-serif, system-ui, sans-serif" font-size="13" fill="#CBD5E1">Honest limit: authenticated LLM Q1-Q7 grading can be BLOCKED without agent login - MCP contract still PASS.</text>
</svg>
